# AST/ASF file generated using VICON BodyLanguage
# -----------------------------------------------
:version 1.10
:name VICON
:units
  mass 1.0
  length 0.45
  angle deg
:documentation
   .ast/.asf automatically generated from VICON data using
   VICON BodyBuilder and BodyLanguage model FoxedUp or BRILLIANT.MOD
:root
   order TX TY TZ RX RY RZ
   axis XYZ
   position 0 0 0  
   orientation 0 0 0 
:bonedata
  begin
     id 1 
     name lhipjoint
     direction 0.543289 -0.788407 0.288535 
     length 2.57127 
     axis 0 0 0  XYZ
  end
  begin
     id 2 
     name lfemur
     direction 0.34202 -0.939693 0  
     length 8.47298  
     axis 0 0 20  XYZ
    dof rx ry rz
    limits (-160.0 20.0)
           (-70.0 70.0)
           (-60.0 70.0)
  end
  begin
     id 3 
     name ltibia
     direction 0.34202 -0.939693 0   
     length 8.13367   
     axis 0 0 20   XYZ
    dof rx
    limits (-10.0 170.0)
  end
  begin
     id 4 
     name lfoot
     direction 0.114037 -0.313314 0.942778   
     length 2.67113   
     axis -90 7.62852e-016 20   XYZ
    dof rx rz
    limits (-45.0 90.0)
           (-70.0 20.0)
  end
  begin
     id 5 
     name ltoes
     direction 1.536e-011 -4.21847e-011 1   
     length 1.32217   
     axis -90 7.62852e-016 20   XYZ
    dof rx
    limits (-90.0 20.0)
  end
  begin
     id 6 
     name rhipjoint
     direction -0.571293 -0.770752 0.282074   
     length 2.63017  
     axis 0 0 0  XYZ 
  end
  begin
     id 7 
     name rfemur
     direction -0.34202 -0.939693 0   
     length 8.60885   
     axis 0 0 -20   XYZ
    dof rx ry rz
    limits (-160.0 20.0)
           (-70.0 70.0)
           (-70.0 60.0)
  end
  begin
     id 8 
     name rtibia
     direction -0.34202 -0.939693 0   
     length 8.07673   
     axis 0 0 -20   XYZ
    dof rx
    limits (-10.0 170.0)
 end
 begin
     id 9 
     name rfoot
     direction -0.121336 -0.333368 0.934956   
     length 2.81602  
     axis -90 -7.62852e-016 -20   XYZ
    dof rx rz
    limits (-45.0 90.0)
           (-20.0 70.0)
  end
  begin
     id 10 
     name rtoes
     direction -1.53491e-011 -4.21808e-011 1   
     length 1.38905   
     axis -90 -7.62852e-016 -20   XYZ
    dof rx
    limits (-90.0 20.0)
  end
  begin
     id 11 
     name lowerback
     direction 0.0136776 0.999869 -0.00861835   
     length 2.14087   
     axis 0 0 0   XYZ
    dof rx ry rz
    limits (-20.0 45.0)
           (-30.0 30.0)
           (-30.0 30.0)
  end
  begin
     id 12 
     name upperback
     direction -0.00789158 0.999804 0.0181308   
     length 2.14151   
     axis 0 0 0   XYZ
    dof rx ry rz
    limits (-20.0 45.0)
           (-30.0 30.0)
           (-30.0 30.0)
  end
  begin
     id 13 
     name thorax
     direction -0.0135231 0.999666 0.0220247   
     length 2.13644   
     axis 0 0 0   XYZ
    dof rx ry rz
    limits (-20.0 45.0)
           (-30.0 30.0)
           (-30.0 30.0)
  end
  begin
     id 14 
     name lowerneck
     direction -0.0392259 0.997317 0.0618018   
     length 1.65045   
     axis 0 0 0   XYZ
    dof rx ry rz
    limits (-20.0 45.0)
           (-30.0 30.0)
           (-30.0 30.0)
  end
  begin
     id 15 
     name upperneck
     direction 0.0765547 0.994276 -0.0745319   
     length 1.66045   
     axis 0 0 0   XYZ
    dof rx ry rz
    limits (-20.0 45.0)
           (-30.0 30.0)
           (-30.0 30.0)
  end
  begin
     id 16
     name head
     direction 0.0241564 0.999031 -0.036785  
     length 1.66594  
     axis 0 0 0   XYZ
    dof rx ry rz
    limits (-20.0 45.0)
           (-30.0 30.0)
           (-30.0 30.0)
  end
  begin
     id 17 
     name lclavicle
     direction 0.967398 0.249018 0.0461573  
     length 3.75176  
     axis 0 0 0   XYZ
    dof ry rz
    limits (-20.0 10.0)
           (0.0 20.0)
  end
  begin
     id 18 
     name lhumerus
     direction 1 -4.48963e-011 -3.05005e-027   
     length 5.93342   
     axis 180 -30 -90   XYZ
    dof rx ry rz
    limits (-60.0 90.0)
           (-90.0 90.0)
           (-90.0 90.0)
  end
  begin
     id 19
     name lradius
     direction 1 -4.48957e-011 1.07006e-026   
     length 3.94763   
     axis 180 -30 -90   XYZ
    dof rx
    limits (-10.0 170.0)
  end
  begin
     id 20
     name lwrist
     direction 1 -4.48978e-011 1.92422e-026   
     length 1.97382   
     axis -1.18182e-014 90 90   XYZ
    dof ry
    limits (-180.0 0.0)
 end
  begin
     id 21 
     name lhand
     direction 1 -4.48931e-011 3.84844e-026   
     length 0.560187   
     axis -2.45563e-014 90 90   XYZ
    dof rx rz
    limits (-90.0 90.0)
           (-45.0 45.0)
  end
  begin
     id 22 
     name lfingers
     direction 1 -4.48952e-011 7.69687e-026   
     length 0.451637   
     axis -4.91126e-014 90 90   XYZ
    dof rx
    limits (0.0 90.0)
  end
  begin
     id 23
     name lthumb
     direction 0.707107 -6.34901e-011 0.707107   
     length 0.648463   
     axis -90 45 2.85299e-015   XYZ
    dof rx rz
    limits (-45.0 45.0)
           (-45.0 45.0)
  end
  begin
     id 24 
     name rclavicle
     direction -0.965946 0.258716 0.00371831   
     length 3.63667  
     axis 0 0 0   XYZ 
    dof ry rz
    limits (-10.0 20.0)
           (-20.0 0.0)
  end
  begin
     id 25 
     name rhumerus
     direction -1 -4.48966e-011 -1.78361e-028  
     length 6.28647   
     axis 180 30 90   XYZ
    dof rx ry rz
    limits (-90.0 60.0)
           (-90.0 90.0)
           (-90.0 90.0)
  end
  begin
     id 26 
     name rradius
     direction -1 -4.48961e-011 1.05248e-026   
     length 3.81645   
     axis 180 30 90   XYZ
    dof rx
    limits (-10.0 170.0)
  end
  begin
     id 27 
     name rwrist
     direction -1 -4.48979e-011 1.92422e-026   
     length 1.90822   
     axis -1.18182e-014 -90 -90   XYZ
    dof ry
    limits (-180.0 0.0)
  end
  begin
     id 28
     name rhand
     direction -1 -4.48937e-011 3.84844e-026   
     length 0.646185   
     axis -2.45563e-014 -90 -90   XYZ
    dof rx rz
    limits (-90.0 90.0)
           (-45.0 45.0)
  end
  begin
     id 29
     name rfingers
     direction -1 -4.48953e-011 7.69687e-026   
     length 0.520971   
     axis -4.91126e-014 -90 -90   XYZ
    dof rx
    limits (0.0 90.0)
  end
  begin
     id 30
     name rthumb
     direction -0.707107 -6.3494e-011 0.707107   
     length 0.748013   
     axis -90 -45 -2.85299e-015   XYZ
    dof rx rz
    limits (-45.0 45.0)
           (-45.0 45.0)
  end
:hierarchy
  begin
    root lhipjoint rhipjoint lowerback
    lhipjoint lfemur
    lfemur ltibia
    ltibia lfoot
    lfoot ltoes
    rhipjoint rfemur
    rfemur rtibia
    rtibia rfoot
    rfoot rtoes
    lowerback upperback
    upperback thorax
    thorax lowerneck lclavicle rclavicle
    lowerneck upperneck
    upperneck head
    lclavicle lhumerus
    lhumerus lradius
    lradius lwrist
    lwrist lhand lthumb
    lhand lfingers
    rclavicle rhumerus
    rhumerus rradius
    rradius rwrist
    rwrist rhand rthumb
    rhand rfingers
  end

#!OML:ASF H:\HAZMAT1\Patient Classification 1\Patient 3\Session 1\dancer.ASF
:FULLY-SPECIFIED
:DEGREES
152
upperback -6.212590 -3.750660 1.051890
rfoot -20.283199 -24.551500
lradius 40.502998
lthumb 10.566200 50.880798
rradius 49.269199
lwrist 35.809700
rhand -20.700199 -387.049988
rhumerus 23.136101 -62.044399 -19.272900
lowerneck -0.302623 0.540283 0.437852
lhand -15.620600 381.165985
ltibia 55.904301
head -4.781840 0.967581 0.729470
rwrist -57.452900
lfingers 7.125020
rtoes -13.107600
lowerback -2.567620 -3.091130 5.756890
rfingers 7.125020
lclavicle 0.000000 0.000000
upperneck -16.038200 1.822830 2.902590
rfemur -18.773500 -29.607500 21.382500
thorax -5.338210 -1.989270 -2.037570
rclavicle 0.000000 0.000000
rtibia 58.029598
lfoot -25.282301 16.065201
lhumerus 50.043900 62.673199 41.200901
rthumb 5.663770 -56.954300
root -2.503800 18.880899 11.521800 4.251200 -221.645996 -354.806000
ltoes 1.216910
lfemur -22.142401 -350.786011 -17.912800
153
upperback -6.320050 -4.242650 0.676105
rfoot -26.565300 -26.887300
lradius 48.309700
lthumb 9.774540 47.681198
rradius 55.684299
lwrist 35.666698
rhand -18.679600 -384.028992
rhumerus 2.711450 -64.257698 -24.195999
lowerneck -0.874131 0.527698 0.774114
lhand -16.441200 377.928009
ltibia 60.673100
head -4.572500 0.867171 0.613922
rwrist -58.635300
lfingers 7.125020
rtoes -11.025800
lowerback -1.952570 -3.461180 5.183610
rfingers 7.125020
lclavicle -0.000000 -0.000000
upperneck -14.263600 1.607990 2.448700
rfemur -24.339800 -27.293699 23.567699
thorax -5.822690 -2.234900 -2.050190
rclavicle -0.000000 -0.000000
rtibia 60.142601
lfoot -22.862200 9.081440
lhumerus 41.355000 64.276802 56.449699
rthumb 7.614430 -53.871498
root -2.796170 18.508101 11.853000 5.972920 -221.294998 -356.160004
ltoes 0.784003
lfemur -30.001699 -350.019012 -19.273100
154
upperback -6.305680 -6.368830 0.084040
rfoot -35.291100 -16.976900
lradius 35.771198
lthumb 10.038600 50.975700
rradius 37.092201
lwrist 30.723200
rhand -0.659508 -370.574005
rhumerus -52.150902 -33.012299 -45.913399
lowerneck -2.038510 1.426900 2.031140
lhand -16.167500 381.234985
ltibia 67.089401
head -1.267210 1.027600 0.153050
rwrist -47.144699
lfingers 7.125020
rtoes -3.861120
lowerback -0.887030 -5.006430 3.084780
rfingers 7.125020
lclavicle -0.000000 -0.000000
upperneck -5.243130 2.073850 1.628430
rfemur -28.482500 -34.331001 20.279800
thorax -6.398530 -3.215720 -1.318680
rclavicle -0.000000 -0.000000
rtibia 76.557701
lfoot -32.182800 7.572190
lhumerus -24.775400 32.592800 59.138699
rthumb 24.958500 -38.963902
root -3.399740 17.413200 12.361000 7.638750 -217.360001 -358.270996
ltoes 11.793000
lfemur -40.158699 -347.101013 -24.651400
155
upperback -3.545550 -2.913050 -1.154200
rfoot -20.813400 -28.924801
lradius 16.338100
lthumb 53.359001 22.427200
rradius 12.757600
lwrist -38.222000
rhand 25.174801 -344.556000
rhumerus -90.719200 -15.224600 -56.645000
lowerneck -12.918500 1.217610 2.845930
lhand 29.613400 363.165009
ltibia 71.726601
head 8.091680 0.982119 -0.069798
rwrist 39.539001
lfingers 7.125020
rtoes 3.533070
lowerback -4.487030 -2.146600 5.280640
rfingers 7.125020
lclavicle 0.000000 -0.000000
upperneck 19.194700 1.211710 0.770345
rfemur -0.001759 -21.158600 11.293600
thorax -1.479330 -1.529360 -4.236170
rclavicle 0.000000 -0.000000
rtibia 61.182301
lfoot -31.235100 10.132400
lhumerus -78.670601 10.502300 79.892403
rthumb 49.321602 -6.127710
root -3.463250 17.088200 13.252200 9.216670 -224.638000 -355.567993
ltoes 9.713220
lfemur -44.953899 -342.799988 -21.291599
156
upperback 0.300203 -0.966837 -0.886991
rfoot -36.221199 -27.995300
lradius 12.610100
lthumb 21.243500 63.191502
rradius 15.826900
lwrist -35.570900
rhand 3.568400 -376.355011
rhumerus -72.083702 10.962700 -37.763100
lowerneck -12.795200 3.297650 3.481460
lhand -4.531540 394.335999
ltibia 61.526402
head 6.899710 2.127400 -0.849304
rwrist 23.976299
lfingers 7.125020
rtoes -7.221070
lowerback -0.276067 -0.700219 8.338360
rfingers 7.125020
lclavicle -0.000000 -0.000000
upperneck 15.285000 4.302440 -2.175690
rfemur -2.946620 -10.344000 16.738199
thorax 0.313507 -0.458461 -5.609690
rclavicle -0.000000 -0.000000
rtibia 37.830898
lfoot -16.565500 17.253799
lhumerus -72.668800 -0.239462 16.413099
rthumb 29.003599 -44.118401
root -4.621490 17.638100 16.077101 18.930599 -234.130997 -350.807007
ltoes 15.582900
lfemur -55.485901 -340.908997 -16.257900
157
upperback 5.093860 -4.251360 -0.152910
rfoot -34.664200 -21.671400
lradius 16.708099
lthumb 11.361500 59.056400
rradius 18.656200
lwrist -23.740101
rhand -6.913920 -379.613007
rhumerus -21.727800 -7.333100 -16.904200
lowerneck -12.515300 4.228840 4.065020
lhand -14.796000 389.384003
ltibia 53.583698
head 5.617640 2.600370 -0.844283
rwrist 8.716530
lfingers 7.125020
rtoes 0.574980
lowerback 4.308650 -3.453670 6.785930
rfingers 7.125020
lclavicle -0.000000 0.000000
upperneck 11.280400 5.268940 -2.025460
rfemur -25.670401 -17.251301 26.827000
thorax 2.362420 -1.830290 -3.833450
rclavicle -0.000000 0.000000
rtibia 46.019901
lfoot 24.534800 29.791500
lhumerus -19.299000 38.783199 7.933170
rthumb 18.953600 -48.709702
root -6.488320 18.394400 19.622801 23.278799 -231.572998 -351.735992
ltoes 37.012798
lfemur -77.892998 -339.631989 -21.781000
158
upperback 8.473280 -5.969420 -1.093850
rfoot -32.239201 -18.725300
lradius 12.596500
lthumb 14.157300 47.754101
rradius 21.932100
lwrist -32.801899
rhand -10.323700 -378.122986
rhumerus 45.473900 -5.287480 -53.928699
lowerneck -7.458450 5.874040 4.004260
lhand -11.895900 378.256012
ltibia 61.610199
head 4.532450 3.829700 -0.829516
rwrist -8.900860
lfingers 7.125020
rtoes 6.676380
lowerback 5.562390 -4.925420 4.771060
rfingers 7.125020
lclavicle -0.000000 -0.000000
upperneck 8.843570 7.658100 -1.809590
rfemur -38.001999 -17.771299 31.660601
thorax 5.118230 -2.479840 -3.680940
rclavicle -0.000000 -0.000000
rtibia 52.971199
lfoot 36.957401 27.975000
lhumerus 70.305199 38.279202 90.706902
rthumb 15.671900 -47.508099
root -7.981680 18.280800 21.476999 24.062700 -233.570999 -350.881989
ltoes 40.921700
lfemur -105.792000 -339.583008 -39.889702
159
upperback 8.891380 -4.767550 -3.077820
rfoot -32.798801 -17.063200
lradius 13.550200
lthumb 13.082300 49.726799
rradius 30.758101
lwrist -20.653000
rhand -9.679850 -380.864014
rhumerus 60.831699 18.913401 -67.103104
lowerneck -4.164970 6.397110 6.529800
lhand -13.011300 380.157013
ltibia 57.270000
head 4.305100 4.351950 -0.897320
rwrist -20.371599
lfingers 7.125020
rtoes 6.167930
lowerback 3.328830 -3.967460 7.006450
rfingers 7.125020
lclavicle 0.000000 0.000000
upperneck 9.769820 8.293150 -0.567830
rfemur -40.217800 -17.747400 35.702400
thorax 6.659040 -1.603420 -7.244770
rclavicle 0.000000 0.000000
rtibia 57.139500
lfoot 37.465000 27.222799
lhumerus 67.224701 10.298600 84.082497
rthumb 16.291901 -50.199200
root -8.158770 17.921200 21.817200 27.945801 -236.141006 -344.894012
ltoes 40.264702
lfemur -106.490997 -335.924988 -38.715199
160
upperback 7.320970 -2.188340 -2.692750
rfoot -36.008202 -17.020000
lradius 23.086201
lthumb 19.573700 50.786201
rradius 32.522499
lwrist 8.645320
rhand -14.694800 -382.865997
rhumerus 56.239300 24.118000 -73.417999
lowerneck -1.603010 4.052590 6.357590
lhand -6.269080 381.752014
ltibia 49.600201
head 4.779720 3.296180 0.637758
rwrist -28.424299
lfingers 7.125020
rtoes 3.323070
lowerback 0.585453 -1.756540 8.145260
rfingers 7.125020
lclavicle -0.000000 -0.000000
upperneck 14.826400 5.074280 4.610980
rfemur -31.590200 -22.181200 35.756401
thorax 6.991220 -0.358106 -7.542470
rclavicle -0.000000 -0.000000
rtibia 55.682400
lfoot 27.550200 37.670799
lhumerus 56.996700 -12.374200 61.046501
rthumb 11.459100 -52.533100
root -7.471200 17.801600 21.178400 26.015100 -231.972000 -342.339996
ltoes 44.648201
lfemur -80.750198 -333.657990 -19.935600
161
upperback 2.953450 3.423730 -0.905403
rfoot -39.992298 -20.254900
lradius 77.890999
lthumb 18.611099 60.604801
rradius 24.622499
lwrist 39.875801
rhand -22.222401 -384.985992
rhumerus 52.770599 7.845460 -77.633003
lowerneck -0.523267 -3.177900 -1.061120
lhand -7.270050 391.475006
ltibia 39.884201
head 4.905800 -1.380070 4.085380
rwrist -25.180500
lfingers 7.125020
rtoes -1.324570
lowerback 0.841028 2.541890 9.733030
rfingers 7.125020
lclavicle -0.000000 0.000000
upperneck 14.969400 -4.996040 13.141000
rfemur -17.042900 -32.297798 30.156401
thorax 3.247610 2.019540 -6.317440
rclavicle -0.000000 0.000000
rtibia 51.325199
lfoot -2.171740 50.615299
lhumerus 49.479599 -32.273499 18.707899
rthumb 4.194000 -54.924198
root -6.034990 17.496901 19.255301 19.107401 -218.397003 -347.076996
ltoes 49.119801
lfemur -65.681503 -347.186005 -8.222790
162
upperback -1.055110 8.272220 -1.299300
rfoot -39.610001 -41.522900
lradius 112.712997
lthumb 29.214199 39.529800
rradius 14.150700
lwrist 48.058102
rhand -24.103201 -384.277008
rhumerus 54.138802 -32.019299 -77.849899
lowerneck -1.137540 -10.957500 -7.374780
lhand 3.788980 371.803009
ltibia 52.402901
head 4.940440 -6.901740 5.471220
rwrist -2.905710
lfingers 7.125020
rtoes -8.803510
lowerback -2.297800 6.307500 8.252270
rfingers 7.125020
lclavicle -0.000000 0.000000
upperneck 9.556700 -15.431900 16.664101
rfemur 8.639460 -16.428900 27.921499
thorax 1.535190 4.181250 -5.532990
rclavicle -0.000000 0.000000
rtibia 25.274401
lfoot -6.644680 25.626600
lhumerus -22.772900 -21.747400 12.723900
rthumb 2.377700 -54.243401
root -4.077100 17.229601 15.325300 16.388201 -199.968002 -355.882996
ltoes 25.159700
lfemur -65.242203 -360.041992 -22.037701
163
upperback -2.255970 7.185010 -0.086501
rfoot -22.113701 -32.453602
lradius 109.928001
lthumb 35.070599 34.839699
rradius 18.589701
lwrist 46.003601
rhand -24.556000 -389.623993
rhumerus 42.214199 -48.734600 -53.274101
lowerneck -0.471831 -13.541200 -8.679810
lhand 9.941190 368.299988
ltibia 65.038399
head 2.745630 -9.352390 4.314350
rwrist -8.852160
lfingers 7.125020
rtoes -15.689900
lowerback -5.443030 5.788290 6.997590
rfingers 7.125020
lclavicle 0.000000 0.000000
upperneck 2.230280 -18.789301 12.508900
rfemur 12.756100 -11.674900 26.152700
thorax 1.567000 3.501750 -3.442940
rclavicle 0.000000 0.000000
rtibia 30.386499
lfoot -22.293400 2.846340
lhumerus -55.353401 -8.112320 21.556400
rthumb 1.940350 -59.594898
root -2.722740 17.107401 11.227300 15.253200 -180.160004 -364.113007
ltoes 17.538700
lfemur -55.947300 -357.141998 -36.920399
